<svg id="visual" viewBox="0 0 1300 600" width="1300" height="600" xmlns="http://www.w3.org/2000/svg" xmlns:xlink="http://www.w3.org/1999/xlink" version="1.1"><rect x="0" y="0" width="1300" height="600" fill="#161616"></rect><path d="M0 400L36.2 399.3C72.3 398.7 144.7 397.3 216.8 404.8C289 412.3 361 428.7 433.2 437.3C505.3 446 577.7 447 650 443.2C722.3 439.3 794.7 430.7 866.8 421.8C939 413 1011 404 1083.2 399.5C1155.3 395 1227.7 395 1263.8 395L1300 395L1300 601L1263.8 601C1227.7 601 1155.3 601 1083.2 601C1011 601 939 601 866.8 601C794.7 601 722.3 601 650 601C577.7 601 505.3 601 433.2 601C361 601 289 601 216.8 601C144.7 601 72.3 601 36.2 601L0 601Z" fill="#fa7268"></path><path d="M0 486L36.2 478.2C72.3 470.3 144.7 454.7 216.8 449.8C289 445 361 451 433.2 449.7C505.3 448.3 577.7 439.7 650 432.2C722.3 424.7 794.7 418.3 866.8 419.7C939 421 1011 430 1083.2 441.3C1155.3 452.7 1227.7 466.3 1263.8 473.2L1300 480L1300 601L1263.8 601C1227.7 601 1155.3 601 1083.2 601C1011 601 939 601 866.8 601C794.7 601 722.3 601 650 601C577.7 601 505.3 601 433.2 601C361 601 289 601 216.8 601C144.7 601 72.3 601 36.2 601L0 601Z" fill="#ef5f67"></path><path d="M0 443L36.2 443.5C72.3 444 144.7 445 216.8 456.7C289 468.3 361 490.7 433.2 494.7C505.3 498.7 577.7 484.3 650 479C722.3 473.7 794.7 477.3 866.8 483.5C939 489.7 1011 498.3 1083.2 498C1155.3 497.7 1227.7 488.3 1263.8 483.7L1300 479L1300 601L1263.8 601C1227.7 601 1155.3 601 1083.2 601C1011 601 939 601 866.8 601C794.7 601 722.3 601 650 601C577.7 601 505.3 601 433.2 601C361 601 289 601 216.8 601C144.7 601 72.3 601 36.2 601L0 601Z" fill="#e34c67"></path><path d="M0 532L36.2 533.2C72.3 534.3 144.7 536.7 216.8 534C289 531.3 361 523.7 433.2 522.7C505.3 521.7 577.7 527.3 650 522.5C722.3 517.7 794.7 502.3 866.8 494.2C939 486 1011 485 1083.2 485C1155.3 485 1227.7 486 1263.8 486.5L1300 487L1300 601L1263.8 601C1227.7 601 1155.3 601 1083.2 601C1011 601 939 601 866.8 601C794.7 601 722.3 601 650 601C577.7 601 505.3 601 433.2 601C361 601 289 601 216.8 601C144.7 601 72.3 601 36.2 601L0 601Z" fill="#d53867"></path><path d="M0 525L36.2 530.7C72.3 536.3 144.7 547.7 216.8 551.3C289 555 361 551 433.2 550.7C505.3 550.3 577.7 553.7 650 550C722.3 546.3 794.7 535.7 866.8 537.7C939 539.7 1011 554.3 1083.2 554.3C1155.3 554.3 1227.7 539.7 1263.8 532.3L1300 525L1300 601L1263.8 601C1227.7 601 1155.3 601 1083.2 601C1011 601 939 601 866.8 601C794.7 601 722.3 601 650 601C577.7 601 505.3 601 433.2 601C361 601 289 601 216.8 601C144.7 601 72.3 601 36.2 601L0 601Z" fill="#c62368"></path></svg>