<svg id="visual" viewBox="0 0 900 600" width="900" height="600" xmlns="http://www.w3.org/2000/svg" xmlns:xlink="http://www.w3.org/1999/xlink" version="1.1"><rect x="0" y="0" width="900" height="600" fill="#161616"></rect><path d="M0 400L25 399.3C50 398.7 100 397.3 150 404.8C200 412.3 250 428.7 300 437.3C350 446 400 447 450 443.2C500 439.3 550 430.7 600 421.8C650 413 700 404 750 399.5C800 395 850 395 875 395L900 395L900 601L875 601C850 601 800 601 750 601C700 601 650 601 600 601C550 601 500 601 450 601C400 601 350 601 300 601C250 601 200 601 150 601C100 601 50 601 25 601L0 601Z" fill="#fa7268"></path><path d="M0 486L25 478.2C50 470.3 100 454.7 150 449.8C200 445 250 451 300 449.7C350 448.3 400 439.7 450 432.2C500 424.7 550 418.3 600 419.7C650 421 700 430 750 441.3C800 452.7 850 466.3 875 473.2L900 480L900 601L875 601C850 601 800 601 750 601C700 601 650 601 600 601C550 601 500 601 450 601C400 601 350 601 300 601C250 601 200 601 150 601C100 601 50 601 25 601L0 601Z" fill="#ef5f67"></path><path d="M0 443L25 443.5C50 444 100 445 150 456.7C200 468.3 250 490.7 300 494.7C350 498.7 400 484.3 450 479C500 473.7 550 477.3 600 483.5C650 489.7 700 498.3 750 498C800 497.7 850 488.3 875 483.7L900 479L900 601L875 601C850 601 800 601 750 601C700 601 650 601 600 601C550 601 500 601 450 601C400 601 350 601 300 601C250 601 200 601 150 601C100 601 50 601 25 601L0 601Z" fill="#e34c67"></path><path d="M0 532L25 533.2C50 534.3 100 536.7 150 534C200 531.3 250 523.7 300 522.7C350 521.7 400 527.3 450 522.5C500 517.7 550 502.3 600 494.2C650 486 700 485 750 485C800 485 850 486 875 486.5L900 487L900 601L875 601C850 601 800 601 750 601C700 601 650 601 600 601C550 601 500 601 450 601C400 601 350 601 300 601C250 601 200 601 150 601C100 601 50 601 25 601L0 601Z" fill="#d53867"></path><path d="M0 525L25 530.7C50 536.3 100 547.7 150 551.3C200 555 250 551 300 550.7C350 550.3 400 553.7 450 550C500 546.3 550 535.7 600 537.7C650 539.7 700 554.3 750 554.3C800 554.3 850 539.7 875 532.3L900 525L900 601L875 601C850 601 800 601 750 601C700 601 650 601 600 601C550 601 500 601 450 601C400 601 350 601 300 601C250 601 200 601 150 601C100 601 50 601 25 601L0 601Z" fill="#c62368"></path></svg>